# This file uses centimeters as units for non-parametric coordinates.

mtllib pizq.mtl
g default
v 0.080045 3.006680 0.218168
v 0.111535 3.001473 0.218168
v 0.139943 2.986353 0.218168
v 0.162489 2.962802 0.218168
v 0.176966 2.933124 0.218168
v 0.181957 2.900225 0.218168
v 0.176972 2.867325 0.218168
v 0.162501 2.837644 0.218168
v 0.139959 2.814089 0.218168
v 0.111554 2.798964 0.218168
v 0.080065 2.793750 0.218168
v 0.080045 3.006680 0.190483
v 0.111535 3.001473 0.190483
v 0.139943 2.986353 0.190483
v 0.162489 2.962802 0.190483
v 0.176966 2.933124 0.190483
v 0.181957 2.900225 0.190483
v 0.176972 2.867325 0.190483
v 0.162501 2.837644 0.190483
v 0.139959 2.814089 0.190483
v 0.111554 2.798964 0.190483
v 0.080065 2.793750 0.190483
v 0.080044 3.018510 0.190483
v 0.115033 3.012723 0.190483
v 0.146598 2.995924 0.190483
v 0.171649 2.969755 0.190483
v 0.187734 2.936780 0.190483
v 0.193279 2.900225 0.190483
v 0.187741 2.863670 0.190483
v 0.171661 2.830692 0.190483
v 0.146615 2.804519 0.190483
v 0.115053 2.787714 0.190483
v 0.080066 2.781921 0.190483
v 0.080044 3.018510 0.218168
v 0.115033 3.012723 0.218168
v 0.146598 2.995924 0.218168
v 0.171649 2.969755 0.218168
v 0.187734 2.936780 0.218168
v 0.193279 2.900225 0.218168
v 0.187741 2.863670 0.218168
v 0.171661 2.830692 0.218168
v 0.146615 2.804519 0.218168
v 0.115053 2.787714 0.218168
v 0.080066 2.781921 0.218168
v 0.011764 2.021884 1.098215
v 0.107637 2.021884 1.098215
v 0.011764 4.197919 1.098215
v 0.107637 4.197919 1.098215
v 0.011764 4.197919 0.050293
v 0.107637 4.197919 0.050293
v 0.011764 2.021884 0.050293
v 0.107637 2.021884 0.050293
vt 0.000000 0.927987
vt 0.000000 0.949999
vt 1.000000 0.949999
vt 1.000000 0.927987
vt 0.000000 0.864081
vt 1.000000 0.864081
vt 0.000000 0.764535
vt 1.000000 0.764535
vt 0.000000 0.639095
vt 1.000000 0.639095
vt 0.000000 0.500039
vt 1.000000 0.500039
vt 0.000000 0.360980
vt 1.000000 0.360980
vt 0.000000 0.235528
vt 1.000000 0.235528
vt 0.000000 0.135965
vt 1.000000 0.135965
vt 0.000000 0.072037
vt 1.000000 0.072037
vt 0.000000 0.049999
vt 1.000000 0.049999
vt 1.000000 1.000000
vt 1.000000 0.975542
vt 1.000000 0.904534
vt 1.000000 0.793928
vt 1.000000 0.654550
vt 1.000000 0.500043
vt 1.000000 0.345533
vt 1.000000 0.206142
vt 1.000000 0.095517
vt 1.000000 0.024485
vt 1.000000 0.000000
vt 0.000000 1.000000
vt 0.000000 0.975542
vt 0.000000 0.904534
vt 0.000000 0.793928
vt 0.000000 0.654550
vt 0.000000 0.500043
vt 0.000000 0.345533
vt 0.000000 0.206142
vt 0.000000 0.095517
vt 0.000000 0.024485
vt 0.000000 0.000000
vt 0.485820 -0.032219
vt 0.514244 -0.032219
vt 0.514244 1.032219
vt 0.485820 1.032219
vt 0.846949 1.032219
vt 0.153115 1.032219
vt 0.846949 -0.032219
vt 0.153115 -0.032219
vn -0.321361 -0.946957 0.000000
vn -0.163157 -0.986600 0.000000
vn -0.163157 -0.986600 0.000000
vn -0.321361 -0.946957 0.000000
vn -0.604546 -0.796570 0.000000
vn -0.604546 -0.796570 0.000000
vn -0.820951 -0.570998 0.000000
vn -0.820951 -0.570998 0.000000
vn -0.954862 -0.297050 0.000000
vn -0.954862 -0.297050 0.000000
vn -1.000000 -0.000091 0.000000
vn -1.000000 -0.000091 0.000000
vn -0.954916 0.296875 0.000000
vn -0.954916 0.296875 0.000000
vn -0.821055 0.570850 0.000000
vn -0.821055 0.570850 0.000000
vn -0.604689 0.796462 0.000000
vn -0.604689 0.796462 0.000000
vn -0.321541 0.946896 0.000000
vn -0.321541 0.946896 0.000000
vn -0.163350 0.986568 0.000000
vn -0.163350 0.986568 0.000000
vn -0.000001 0.000000 -1.000000
vn 0.000000 0.000000 -1.000000
vn 0.000000 0.000000 -1.000000
vn -0.000001 0.000000 -1.000000
vn -0.000001 0.000000 -1.000000
vn -0.000001 0.000000 -1.000000
vn 0.000000 0.000000 -1.000000
vn -0.000000 0.000000 -1.000000
vn 0.000001 0.000000 -1.000000
vn 0.000001 0.000000 -1.000000
vn 0.000000 0.000000 -1.000000
vn 0.000000 0.000000 -1.000000
vn 0.000000 0.000000 -1.000000
vn 0.000000 0.000000 -1.000000
vn 0.000000 0.000000 -1.000000
vn -0.000000 0.000000 -1.000000
vn -0.000001 0.000000 -1.000000
vn -0.000001 0.000000 -1.000000
vn -0.000001 0.000000 -1.000000
vn -0.000001 0.000000 -1.000000
vn 0.000000 0.000000 -1.000000
vn 0.000000 0.000000 -1.000000
vn 0.321370 0.946954 0.000000
vn 0.163171 0.986598 0.000000
vn 0.163171 0.986598 0.000000
vn 0.321370 0.946954 0.000000
vn 0.604546 0.796570 0.000000
vn 0.604546 0.796570 0.000000
vn 0.820951 0.570999 0.000000
vn 0.820951 0.570999 0.000000
vn 0.954862 0.297049 0.000000
vn 0.954862 0.297049 0.000000
vn 1.000000 0.000091 0.000000
vn 1.000000 0.000091 0.000000
vn 0.954916 -0.296877 0.000000
vn 0.954916 -0.296877 0.000000
vn 0.821055 -0.570849 0.000000
vn 0.821055 -0.570849 0.000000
vn 0.604690 -0.796461 0.000000
vn 0.604690 -0.796461 0.000000
vn 0.321540 -0.946896 0.000000
vn 0.321540 -0.946896 0.000000
vn 0.163352 -0.986568 0.000000
vn 0.163352 -0.986568 0.000000
vn -0.000000 0.000000 1.000000
vn 0.000000 0.000000 1.000000
vn 0.000000 0.000000 1.000000
vn -0.000000 0.000000 1.000000
vn -0.000001 0.000000 1.000000
vn -0.000001 0.000000 1.000000
vn -0.000001 0.000000 1.000000
vn -0.000001 0.000000 1.000000
vn -0.000001 0.000000 1.000000
vn -0.000001 0.000000 1.000000
vn -0.000001 0.000000 1.000000
vn -0.000001 0.000000 1.000000
vn -0.000001 0.000000 1.000000
vn -0.000001 0.000000 1.000000
vn -0.000001 0.000000 1.000000
vn -0.000001 0.000000 1.000000
vn 0.000000 0.000000 1.000000
vn 0.000000 0.000000 1.000000
vn 0.000001 0.000000 1.000000
vn 0.000001 0.000000 1.000000
vn 0.000000 0.000000 1.000000
vn 0.000000 0.000000 1.000000
vn -1.000000 -0.000093 0.000000
vn -1.000000 -0.000093 0.000000
vn -1.000000 -0.000093 0.000000
vn -1.000000 -0.000093 0.000000
vn -1.000000 -0.000091 0.000000
vn -1.000000 -0.000091 0.000000
vn -1.000000 -0.000091 0.000000
vn -1.000000 -0.000091 0.000000
vn 0.000000 0.000000 1.000000
vn 0.000000 0.000000 1.000000
vn 0.000000 0.000000 1.000000
vn 0.000000 0.000000 1.000000
vn 0.000000 1.000000 0.000000
vn 0.000000 1.000000 0.000000
vn 0.000000 1.000000 0.000000
vn 0.000000 1.000000 0.000000
vn 0.000000 0.000000 -1.000000
vn 0.000000 0.000000 -1.000000
vn 0.000000 0.000000 -1.000000
vn 0.000000 0.000000 -1.000000
vn 0.000000 -1.000000 0.000000
vn 0.000000 -1.000000 0.000000
vn 0.000000 -1.000000 0.000000
vn 0.000000 -1.000000 0.000000
vn 1.000000 0.000000 0.000000
vn 1.000000 0.000000 0.000000
vn 1.000000 0.000000 0.000000
vn 1.000000 0.000000 0.000000
vn -1.000000 0.000000 0.000000
vn -1.000000 0.000000 0.000000
vn -1.000000 0.000000 0.000000
vn -1.000000 0.000000 0.000000
s 1
g polySurface4
usemtl lambert4SG
f 2/1/1 1/2/2 12/3/3 13/4/4
f 3/5/5 2/1/1 13/4/4 14/6/6
f 4/7/7 3/5/5 14/6/6 15/8/8
f 5/9/9 4/7/7 15/8/8 16/10/10
f 6/11/11 5/9/9 16/10/10 17/12/12
f 7/13/13 6/11/11 17/12/12 18/14/14
f 8/15/15 7/13/13 18/14/14 19/16/16
f 9/17/17 8/15/15 19/16/16 20/18/18
f 10/19/19 9/17/17 20/18/18 21/20/20
f 11/21/21 10/19/19 21/20/20 22/22/22
s 2
f 13/4/23 12/3/24 23/23/25 24/24/26
f 14/6/27 13/4/23 24/24/26 25/25/28
f 15/8/29 14/6/27 25/25/28 26/26/30
f 16/10/31 15/8/29 26/26/30 27/27/32
f 17/12/33 16/10/31 27/27/32 28/28/34
f 18/14/35 17/12/33 28/28/34 29/29/36
f 19/16/37 18/14/35 29/29/36 30/30/38
f 20/18/39 19/16/37 30/30/38 31/31/40
f 21/20/41 20/18/39 31/31/40 32/32/42
f 22/22/43 21/20/41 32/32/42 33/33/44
s 3
f 24/24/45 23/23/46 34/34/47 35/35/48
f 25/25/49 24/24/45 35/35/48 36/36/50
f 26/26/51 25/25/49 36/36/50 37/37/52
f 27/27/53 26/26/51 37/37/52 38/38/54
f 28/28/55 27/27/53 38/38/54 39/39/56
f 29/29/57 28/28/55 39/39/56 40/40/58
f 30/30/59 29/29/57 40/40/58 41/41/60
f 31/31/61 30/30/59 41/41/60 42/42/62
f 32/32/63 31/31/61 42/42/62 43/43/64
f 33/33/65 32/32/63 43/43/64 44/44/66
s 4
f 35/35/67 34/34/68 1/2/69 2/1/70
f 36/36/71 35/35/67 2/1/70 3/5/72
f 37/37/73 36/36/71 3/5/72 4/7/74
f 38/38/75 37/37/73 4/7/74 5/9/76
f 39/39/77 38/38/75 5/9/76 6/11/78
f 40/40/79 39/39/77 6/11/78 7/13/80
f 41/41/81 40/40/79 7/13/80 8/15/82
f 42/42/83 41/41/81 8/15/82 9/17/84
f 43/43/85 42/42/83 9/17/84 10/19/86
f 44/44/87 43/43/85 10/19/86 11/21/88
s off
f 44/44/89 11/21/90 22/22/91 33/33/92
f 12/3/93 1/2/94 34/34/95 23/23/96
usemtl lambert2SG
f 45/45/97 46/46/98 48/47/99 47/48/100
f 47/48/101 48/47/102 50/49/103 49/50/104
f 49/50/105 50/49/106 52/51/107 51/52/108
f 51/52/109 52/51/110 46/46/111 45/45/112
f 46/46/113 52/51/114 50/49/115 48/47/116
f 51/52/117 45/45/118 47/48/119 49/50/120
